<?xml version="1.0" encoding="utf-8"?>
<!-- Generator: Adobe Illustrator 16.0.0, SVG Export Plug-In . SVG Version: 6.00 Build 0)  -->
<!DOCTYPE svg PUBLIC "-//W3C//DTD SVG 1.0//EN" "http://www.w3.org/TR/2001/REC-SVG-20010904/DTD/svg10.dtd">
<svg version="1.0" id="Layer_1" xmlns="http://www.w3.org/2000/svg" xmlns:xlink="http://www.w3.org/1999/xlink" x="0px" y="0px"
	 width="88px" height="24px" viewBox="0 0 88 24" enable-background="new 0 0 88 24" xml:space="preserve">
<g>
	<g>
		<path fill="#68A6BF" d="M10.887,15.328c0-1.172,0.222-2.271,0.667-3.296c0.445-1.024,1.052-1.922,1.819-2.69
			c0.766-0.768,1.662-1.375,2.684-1.821c1.022-0.446,2.12-0.667,3.291-0.667c1.172,0,2.269,0.226,3.292,0.681
			c1.022,0.454,1.918,1.069,2.686,1.847c0.766,0.776,1.371,1.676,1.818,2.7c0.447,1.027,0.666,2.109,0.666,3.248
			c0,1.174-0.219,2.273-0.666,3.297c-0.447,1.025-1.052,1.922-1.818,2.691c-0.767,0.766-1.663,1.375-2.686,1.82
			c-1.023,0.445-2.12,0.668-3.292,0.668c-1.171,0-2.269-0.223-3.291-0.668s-1.918-1.055-2.684-1.82
			c-0.767-0.77-1.374-1.666-1.819-2.691C11.109,17.602,10.887,16.502,10.887,15.328z M13.856,15.328c0,0.76,0.143,1.475,0.434,2.145
			c0.287,0.67,0.678,1.252,1.173,1.748c0.496,0.496,1.079,0.889,1.745,1.178c0.669,0.287,1.382,0.432,2.14,0.432
			s1.472-0.145,2.14-0.432c0.667-0.289,1.248-0.682,1.745-1.178c0.496-0.496,0.885-1.078,1.175-1.748
			c0.289-0.67,0.434-1.385,0.434-2.145c0-0.758-0.145-1.475-0.434-2.145c-0.291-0.668-0.68-1.25-1.175-1.746
			c-0.498-0.497-1.078-0.889-1.745-1.178c-0.668-0.29-1.382-0.432-2.14-0.432s-1.471,0.143-2.14,0.432
			c-0.667,0.29-1.25,0.682-1.745,1.178c-0.495,0.496-0.886,1.078-1.173,1.746C14,13.854,13.856,14.57,13.856,15.328z"/>
	</g>
	<g>
		<path fill="#68A6BF" d="M28.635,15.328c0-1.172,0.222-2.271,0.668-3.296c0.445-1.024,1.051-1.922,1.818-2.69
			c0.767-0.768,1.663-1.375,2.684-1.821c1.024-0.446,2.121-0.667,3.291-0.667c1.171,0,2.269,0.226,3.293,0.681
			c1.021,0.454,1.914,1.069,2.682,1.847c0.77,0.776,1.374,1.676,1.819,2.7c0.445,1.027,0.671,2.109,0.671,3.248
			c0,1.174-0.226,2.273-0.671,3.297c-0.445,1.025-1.05,1.922-1.819,2.691c-0.768,0.766-1.661,1.375-2.682,1.82
			c-1.024,0.445-2.122,0.668-3.293,0.668c-1.17,0-2.267-0.223-3.291-0.668c-1.021-0.445-1.917-1.055-2.684-1.82
			c-0.767-0.77-1.373-1.666-1.818-2.691C28.857,17.602,28.635,16.502,28.635,15.328z M31.606,15.328c0,0.76,0.143,1.475,0.432,2.145
			c0.289,0.67,0.682,1.252,1.173,1.748c0.497,0.496,1.076,0.889,1.745,1.178c0.667,0.287,1.382,0.432,2.14,0.432
			c0.76,0,1.473-0.145,2.14-0.432c0.67-0.289,1.252-0.682,1.746-1.178c0.495-0.496,0.888-1.078,1.175-1.748
			c0.289-0.67,0.432-1.385,0.432-2.145c0-0.758-0.143-1.475-0.432-2.145c-0.287-0.668-0.68-1.25-1.175-1.746
			c-0.494-0.497-1.075-0.889-1.746-1.178c-0.667-0.29-1.379-0.432-2.14-0.432c-0.758,0-1.474,0.143-2.14,0.432
			c-0.669,0.29-1.248,0.682-1.745,1.178c-0.492,0.496-0.885,1.078-1.173,1.746C31.749,13.854,31.606,14.57,31.606,15.328z"/>
	</g>
	<g>
		<path fill="#68A6BF" d="M46.33,0.159h2.97v23.201h-2.97V0.159z"/>
	</g>
	<g>
		<path fill="#68A6BF" d="M66.594,18.371c-0.003,0.76-0.213,1.473-0.626,2.141c-0.417,0.668-0.983,1.248-1.702,1.74
			c-0.722,0.492-1.563,0.883-2.53,1.17c-0.967,0.281-1.993,0.424-3.082,0.42c-1.17-0.006-2.268-0.232-3.288-0.682
			c-1.021-0.451-1.912-1.062-2.676-1.834c-0.766-0.771-1.368-1.672-1.808-2.697c-0.44-1.025-0.66-2.127-0.656-3.299
			c0.006-1.172,0.233-2.271,0.684-3.292c0.449-1.024,1.059-1.918,1.826-2.684c0.77-0.764,1.669-1.368,2.691-1.811
			c1.025-0.441,2.123-0.659,3.295-0.655c1.155,0.004,2.28,0.229,3.376,0.67C63.192,8,64.142,8.649,64.948,9.502
			c0.803,0.854,1.404,1.902,1.805,3.144c0.399,1.24,0.488,2.654,0.27,4.238L53.387,16.83c0,0.396,0.137,0.828,0.416,1.289
			c0.277,0.467,0.656,0.9,1.133,1.307c0.475,0.408,1.032,0.748,1.667,1.023c0.633,0.275,1.323,0.416,2.063,0.418
			c0.643,0.002,1.244-0.061,1.809-0.191c0.559-0.129,1.053-0.309,1.474-0.539c0.418-0.23,0.753-0.496,0.993-0.801
			c0.24-0.307,0.36-0.633,0.36-0.979L66.594,18.371z M63.991,13.898c-0.084-0.348-0.263-0.754-0.542-1.218
			c-0.279-0.461-0.648-0.901-1.105-1.317c-0.463-0.415-0.998-0.768-1.606-1.059c-0.608-0.293-1.285-0.439-2.028-0.445
			c-0.741-0.002-1.417,0.14-2.03,0.427c-0.608,0.287-1.149,0.636-1.612,1.047c-0.462,0.412-0.84,0.848-1.13,1.31
			c-0.291,0.461-0.471,0.864-0.537,1.211L63.991,13.898z"/>
	</g>
	<path fill="#68A6BF" d="M4.065,11.122c0.553-1.099,1.226-1.962,2.017-2.59S7.74,7.465,8.68,7.218
		c0.939-0.249,1.872-0.372,2.798-0.372V9.82c-0.696,0-1.3,0.078-1.82,0.234c-0.52,0.159-0.968,0.37-1.348,0.631
		c-0.382,0.267-0.702,0.56-0.964,0.882c-0.265,0.323-0.488,0.657-0.669,1.004c-0.416,0.81-0.643,1.726-0.693,2.751v8.031H3.013
		v-8.031C3.162,13.621,3.514,12.22,4.065,11.122z"/>
	<path fill="#68A6BF" d="M83.791,11.122c-0.553-1.099-1.224-1.962-2.015-2.59c-0.793-0.628-1.658-1.066-2.599-1.313
		c-0.942-0.249-1.874-0.372-2.797-0.372c-0.924,0-1.855,0.124-2.796,0.372c-0.94,0.247-1.808,0.686-2.596,1.313
		c-0.794,0.628-1.467,1.492-2.018,2.59c-0.553,1.099-0.904,2.5-1.055,4.201v8.031h2.971v-8.031c0.048-1.025,0.281-1.941,0.693-2.751
		c0.183-0.347,0.403-0.681,0.666-1.004c0.267-0.322,0.586-0.615,0.965-0.882c0.381-0.261,0.831-0.472,1.351-0.631
		c0.52-0.156,1.125-0.234,1.818-0.234c0.694,0,1.298,0.078,1.818,0.234c0.519,0.159,0.97,0.37,1.35,0.631
		c0.379,0.267,0.699,0.56,0.964,0.882c0.266,0.323,0.484,0.657,0.667,1.004c0.415,0.81,0.645,1.726,0.694,2.751v8.031h2.97v-8.031
		C84.694,13.621,84.345,12.22,83.791,11.122z"/>
</g>
</svg>
