<?xml version="1.0" encoding="UTF-8" standalone="no"?>
<svg width="440px" height="160px" viewBox="0 0 440 160" version="1.1" xmlns="http://www.w3.org/2000/svg" xmlns:xlink="http://www.w3.org/1999/xlink" xmlns:sketch="http://www.bohemiancoding.com/sketch/ns">
    <title>BREATH LOGO</title>
    <description>Created with Sketch (http://www.bohemiancoding.com/sketch)</description>
    <defs></defs>
    <g id="Page-1" stroke="none" stroke-width="1" fill="none" fill-rule="evenodd" sketch:type="MSPage">
        <g id="BREATH-LOGO" sketch:type="MSArtboardGroup" fill="#000000">
            <g id="BREATH" sketch:type="MSLayerGroup" transform="translate(37.000000, 18.000000)">
                <path d="M0.217,0.746 L0.217,80 L32.962,80 C36.7360189,80 40.2324839,79.5375046 43.4515,78.6125 C46.6705161,77.6874954 49.4269885,76.3370089 51.721,74.561 C54.0150115,72.7849911 55.8094935,70.5465135 57.1045,67.8455 C58.3995065,65.1444865 59.047,62.0180178 59.047,58.466 C59.047,55.4319848 58.5290052,52.712512 57.493,50.3075 C56.4569948,47.902488 55.0695087,45.8675083 53.3305,44.2025 C51.5914913,42.5374917 49.5565117,41.2425046 47.2255,40.3175 C44.8944883,39.3924954 42.434013,38.8930004 39.844,38.819 L39.844,38.597 C42.2860122,38.4489993 44.5244898,37.875505 46.5595,36.8765 C48.5945102,35.877495 50.3519926,34.5640081 51.832,32.936 C53.3120074,31.3079919 54.4774957,29.4210107 55.3285,27.275 C56.1795043,25.1289893 56.605,22.8720118 56.605,20.504 C56.605,17.1739834 56.0315057,14.2880122 54.8845,11.846 C53.7374943,9.40398779 52.1465102,7.35050832 50.1115,5.6855 C48.0764898,4.02049167 45.7085135,2.78100407 43.0075,1.967 C40.3064865,1.15299593 37.4020155,0.746 34.294,0.746 C34.294,0.746 37.4020155,0.746 34.294,0.746 L0.217,0.746 Z M2.437,37.598 L2.437,2.966 L34.294,2.966 C37.1060141,2.966 39.7329878,3.31749648 42.175,4.0205 C44.6170122,4.72350352 46.7444909,5.79649278 48.5575,7.2395 C50.3705091,8.68250721 51.7949948,10.4954891 52.831,12.6785 C53.8670052,14.8615109 54.385,17.4699848 54.385,20.504 C54.385,23.3160141 53.8300056,25.7949893 52.72,27.941 C51.6099945,30.0870107 50.1300093,31.8814928 48.28,33.3245 C46.4299908,34.7675072 44.302512,35.8404965 41.8975,36.5435 C39.492488,37.2465035 36.9580133,37.598 34.294,37.598 L2.437,37.598 Z M2.437,77.78 L2.437,39.818 L34.294,39.818 C37.1060141,39.818 39.8624865,40.1509967 42.5635,40.817 C45.2645135,41.4830033 47.6694895,42.5559926 49.7785,44.036 C51.8875105,45.5160074 53.5894935,47.4399882 54.8845,49.808 C56.1795065,52.1760118 56.827,55.0989826 56.827,58.577 C56.827,61.8330163 56.2350059,64.663488 55.051,67.0685 C53.8669941,69.473512 52.2575102,71.471492 50.2225,73.0625 C48.1874898,74.653508 45.7825139,75.8374961 43.0075,76.6145 C40.2324861,77.3915039 37.2170163,77.78 33.961,77.78 L2.437,77.78 Z M2.437,77.78" id="Path" sketch:type="MSShapeGroup"></path>
                <path d="M71.035,80 L71.035,42.815 L100.894,42.815 C105.482023,42.815 109.144986,43.2774954 111.883,44.2025 C114.621014,45.1275046 116.729993,46.4594913 118.21,48.1985 C119.690007,49.9375087 120.670498,52.0834872 121.1515,54.6365 C121.632502,57.1895128 121.873,60.0939837 121.873,63.35 C121.873,64.6080063 121.8915,66.032492 121.9285,67.6235 C121.9655,69.214508 122.039499,70.7869922 122.1505,72.341 C122.261501,73.8950078 122.427999,75.3564932 122.65,76.7255 C122.872001,78.0945068 123.167998,79.1859959 123.538,80 L125.98,80 C125.609998,79.4819974 125.314001,78.5570067 125.092,77.225 C124.869999,75.8929933 124.685001,74.4130081 124.537,72.785 C124.388999,71.1569919 124.278,69.5105083 124.204,67.8455 C124.13,66.1804917 124.093,64.7930056 124.093,63.683 C124.093,60.5009841 123.908002,57.6520126 123.538,55.136 C123.167998,52.6199874 122.428006,50.4370092 121.318,48.587 C120.207994,46.7369907 118.61701,45.2385057 116.545,44.0915 C114.47299,42.9444943 111.772017,42.1490022 108.442,41.705 L108.442,41.483 C113.992028,40.2249937 118.246985,37.8385176 121.207,34.3235 C124.167015,30.8084824 125.573001,26.3870266 125.425,21.059 C125.276999,14.1029652 123.279019,8.97851646 119.431,5.6855 C115.582981,2.39248353 109.515041,0.746 101.227,0.746 L68.815,0.746 L68.815,80 L71.035,80 Z M71.035,40.595 L71.035,2.966 L101.782,2.966 C109.330038,2.966 114.768983,4.53848428 118.099,7.6835 C121.429017,10.8285157 123.131,15.2129719 123.205,20.837 C123.205,24.3150174 122.576006,27.2934876 121.318,29.7725 C120.059994,32.2515124 118.39501,34.3049919 116.323,35.933 C114.25099,37.5610081 111.864514,38.7449963 109.1635,39.485 C106.462486,40.2250037 103.632015,40.595 100.672,40.595 L71.035,40.595 Z M71.035,40.595" id="Path" sketch:type="MSShapeGroup"></path>
                <path d="M138.856,77.78 L138.856,39.818 L186.253,39.818 L186.253,37.598 L138.856,37.598 L138.856,2.966 L189.25,2.966 L189.25,0.746 L136.636,0.746 L136.636,80 L189.694,80 L189.694,77.78 L189.694,77.78 L138.856,77.78 L138.856,77.78 Z M138.856,77.78" id="Path" sketch:type="MSShapeGroup"></path>
                <path d="M201.015,53.915 L241.419,53.915 L251.853,80 L254.295,80 L222.993,0.746 L220.107,0.746 L188.028,80 L190.47,80 L201.015,53.915 Z M240.531,51.695 L201.903,51.695 L221.439,2.966 L221.661,2.966 L240.531,51.695 Z M240.531,51.695" id="Path" sketch:type="MSShapeGroup"></path>
                <path d="M306.568,2.966 L276.934,2.966 L276.934,80 L274.714,80 L274.714,2.966 L246.298,2.966 L246.298,0.746 L307.0145,0.746 L308.788,0.746 L308.788,37.598 L364.288,37.598 L364.288,0.746 L366.508,0.746 L366.508,80 L364.288,80 L364.288,39.818 L308.788,39.818 L308.788,80 L306.568,80 L306.568,2.966 Z M306.568,2.966" id="Path" sketch:type="MSShapeGroup"></path>
            </g>
            <path d="M21.744,138.54 L19.296,138.54 C19.2239996,140.124008 19.4339975,141.479994 19.926,142.608 C20.4180025,143.736006 21.1199954,144.659996 22.032,145.38 C22.9440046,146.100004 24.0479935,146.633998 25.344,146.982 C26.6400065,147.330002 28.0439924,147.504 29.556,147.504 C31.0680076,147.504 32.3639946,147.366001 33.444,147.09 C34.5240054,146.813999 35.4299963,146.454002 36.162,146.01 C36.8940037,145.565998 37.4699979,145.068003 37.89,144.516 C38.3100021,143.963997 38.6339989,143.418003 38.862,142.878 C39.0900011,142.337997 39.2339997,141.828002 39.294,141.348 C39.3540003,140.867998 39.384,140.484001 39.384,140.196 C39.384,139.139995 39.2100017,138.240004 38.862,137.496 C38.5139983,136.751996 38.0340031,136.122003 37.422,135.606 C36.8099969,135.089997 36.102004,134.658002 35.298,134.31 C34.493996,133.961998 33.6360046,133.668001 32.724,133.428 L26.46,131.88 C25.9319974,131.759999 25.4340023,131.604001 24.966,131.412 C24.4979977,131.219999 24.0840018,130.968002 23.724,130.656 C23.3639982,130.343998 23.082001,129.966002 22.878,129.522 C22.673999,129.077998 22.572,128.556003 22.572,127.956 C22.572,126.995995 22.7519982,126.192003 23.112,125.544 C23.4720018,124.895997 23.9459971,124.374002 24.534,123.978 C25.1220029,123.581998 25.8059961,123.294001 26.586,123.114 C27.3660039,122.933999 28.1759958,122.844 29.016,122.844 C29.9280046,122.844 30.7979959,122.969999 31.626,123.222 C32.4540041,123.474001 33.1859968,123.845998 33.822,124.338 C34.4580032,124.830002 34.973998,125.441996 35.37,126.174 C35.766002,126.906004 35.9879998,127.763995 36.036,128.748 L38.484,128.748 C38.484,127.427993 38.2260026,126.270005 37.71,125.274 C37.1939974,124.277995 36.5040043,123.444003 35.64,122.772 C34.7759957,122.099997 33.7680058,121.596002 32.616,121.26 C31.4639942,120.923998 30.2520064,120.756 28.98,120.756 C27.179991,120.756 25.7040058,121.013997 24.552,121.53 C23.3999942,122.046003 22.4940033,122.675996 21.834,123.42 C21.1739967,124.164004 20.7240012,124.955996 20.484,125.796 C20.2439988,126.636004 20.124,127.367997 20.124,127.992 C20.124,129.000005 20.2859984,129.851997 20.61,130.548 C20.9340016,131.244003 21.3599974,131.831998 21.888,132.312 C22.4160026,132.792002 23.0339965,133.175999 23.742,133.464 C24.4500035,133.752001 25.1759963,133.991999 25.92,134.184 L31.644,135.588 C32.244003,135.732001 32.8559969,135.917999 33.48,136.146 C34.1040031,136.374001 34.6739974,136.667998 35.19,137.028 C35.7060026,137.388002 36.1259984,137.831997 36.45,138.36 C36.7740016,138.888003 36.936,139.511996 36.936,140.232 C36.936,141.168005 36.7080023,141.965997 36.252,142.626 C35.7959977,143.286003 35.2260034,143.825998 34.542,144.246 C33.8579966,144.666002 33.120004,144.971999 32.328,145.164 C31.535996,145.356001 30.8040034,145.452 30.132,145.452 C28.9559941,145.452 27.8520052,145.338001 26.82,145.11 C25.7879948,144.881999 24.8940038,144.504003 24.138,143.976 C23.3819962,143.447997 22.7880022,142.740004 22.356,141.852 C21.9239978,140.963996 21.7199999,139.860007 21.744,138.54 C21.744,138.54 21.7199999,139.860007 21.744,138.54 Z M42.84,128.424 L42.84,147 L45.108,147 L45.108,136.632 C45.108,135.647995 45.2159989,134.742004 45.432,133.914 C45.6480011,133.085996 45.9779978,132.366003 46.422,131.754 C46.8660022,131.141997 47.4419965,130.662002 48.15,130.314 C48.8580035,129.965998 49.6919952,129.792 50.652,129.792 C51.3720036,129.792 51.9839975,129.911999 52.488,130.152 C52.9920025,130.392001 53.3939985,130.721998 53.694,131.142 C53.9940015,131.562002 54.2099993,132.053997 54.342,132.618 C54.4740007,133.182003 54.54,133.775997 54.54,134.4 L54.54,147 L56.808,147 L56.808,136.488 C56.808,135.623996 56.8859992,134.790004 57.042,133.986 C57.1980008,133.181996 57.4679981,132.468003 57.852,131.844 C58.2360019,131.219997 58.7519968,130.722002 59.4,130.35 C60.0480032,129.977998 60.8639951,129.792 61.848,129.792 C63.4800082,129.792 64.6199968,130.193996 65.268,130.998 C65.9160032,131.802004 66.24,132.971992 66.24,134.508 L66.24,147 L68.508,147 L68.508,134.4 C68.508,130.055978 66.4560205,127.884 62.352,127.884 C61.1279939,127.884 59.9760054,128.183997 58.896,128.784 C57.8159946,129.384003 57.0000028,130.295994 56.448,131.52 C56.1119983,130.295994 55.446005,129.384003 54.45,128.784 C53.453995,128.183997 52.3440061,127.884 51.12,127.884 C49.6079924,127.884 48.3660049,128.207997 47.394,128.856 C46.4219951,129.504003 45.636003,130.403994 45.036,131.556 L44.928,131.556 L44.928,128.424 L42.84,128.424 Z M72.612,134.112 L74.88,134.112 C74.9280002,132.599992 75.4079954,131.502003 76.32,130.818 C77.2320046,130.133997 78.4079928,129.792 79.848,129.792 C80.5200034,129.792 81.1499971,129.845999 81.738,129.954 C82.3260029,130.062001 82.8419978,130.259999 83.286,130.548 C83.7300022,130.836001 84.0779987,131.225998 84.33,131.718 C84.5820013,132.210002 84.708,132.839996 84.708,133.608 C84.708,134.112003 84.6420007,134.519998 84.51,134.832 C84.3779993,135.144002 84.1920012,135.389999 83.952,135.57 C83.7119988,135.750001 83.4120018,135.876 83.052,135.948 C82.6919982,136.02 82.2720024,136.08 81.792,136.128 C80.5679939,136.272001 79.3620059,136.421999 78.174,136.578 C76.9859941,136.734001 75.9180047,137.003998 74.97,137.388 C74.0219953,137.772002 73.2600029,138.329996 72.684,139.062 C72.1079971,139.794004 71.82,140.807994 71.82,142.104 C71.82,143.040005 71.9819984,143.849997 72.306,144.534 C72.6300016,145.218003 73.0739972,145.781998 73.638,146.226 C74.2020028,146.670002 74.8619962,146.993999 75.618,147.198 C76.3740038,147.402001 77.1839957,147.504 78.048,147.504 C78.9600046,147.504 79.7459967,147.420001 80.406,147.252 C81.0660033,147.083999 81.6539974,146.844002 82.17,146.532 C82.6860026,146.219998 83.1539979,145.830002 83.574,145.362 C83.9940021,144.893998 84.407998,144.360003 84.816,143.76 L84.888,143.76 C84.888,144.240002 84.9179997,144.677998 84.978,145.074 C85.0380003,145.470002 85.163999,145.811999 85.356,146.1 C85.548001,146.388001 85.8179983,146.609999 86.166,146.766 C86.5140017,146.922001 86.9759971,147 87.552,147 C87.8640016,147 88.121999,146.988 88.326,146.964 C88.530001,146.94 88.7639987,146.904 89.028,146.856 L89.028,144.948 C88.8119989,145.044 88.5720013,145.092 88.308,145.092 C87.4199956,145.092 86.976,144.636005 86.976,143.724 L86.976,133.86 C86.976,132.611994 86.772002,131.598004 86.364,130.818 C85.955998,130.037996 85.4280032,129.432002 84.78,129 C84.1319968,128.567998 83.4000041,128.274001 82.584,128.118 C81.7679959,127.961999 80.9520041,127.884 80.136,127.884 C79.0559946,127.884 78.0720044,128.003999 77.184,128.244 C76.2959956,128.484001 75.5220033,128.855997 74.862,129.36 C74.2019967,129.864003 73.6800019,130.511996 73.296,131.304 C72.9119981,132.096004 72.6840004,133.031995 72.612,134.112 C72.612,134.112 72.6840004,133.031995 72.612,134.112 Z M84.708,136.848 L84.708,139.8 C84.708,140.712005 84.5340017,141.527996 84.186,142.248 C83.8379983,142.968004 83.3700029,143.579997 82.782,144.084 C82.1939971,144.588003 81.504004,144.971999 80.712,145.236 C79.919996,145.500001 79.0920043,145.632 78.228,145.632 C77.6999974,145.632 77.1840025,145.548001 76.68,145.38 C76.1759975,145.211999 75.7320019,144.966002 75.348,144.642 C74.9639981,144.317998 74.6580011,143.934002 74.43,143.49 C74.2019989,143.045998 74.088,142.536003 74.088,141.96 C74.088,141.047995 74.3579973,140.346002 74.898,139.854 C75.4380027,139.361998 76.1279958,138.984001 76.968,138.72 C77.8080042,138.455999 78.7379949,138.258001 79.758,138.126 C80.7780051,137.993999 81.7679952,137.844001 82.728,137.676 C83.0400016,137.628 83.399998,137.544001 83.808,137.424 C84.216002,137.303999 84.4919993,137.112001 84.636,136.848 C84.636,136.848 84.4919993,137.112001 84.636,136.848 L84.708,136.848 Z M91.512,128.424 L91.512,147 L93.78,147 L93.78,137.1 C93.78,136.115995 93.9479983,135.210004 94.284,134.382 C94.6200017,133.553996 95.0939969,132.840003 95.706,132.24 C96.3180031,131.639997 97.0439958,131.178002 97.884,130.854 C98.7240042,130.529998 99.6599948,130.392 100.692,130.44 L100.692,128.172 C99.0119916,128.1 97.5660061,128.471996 96.354,129.288 C95.1419939,130.104004 94.2480029,131.267992 93.672,132.78 L93.6,132.78 L93.6,128.424 L91.512,128.424 Z M106.452,128.424 L106.452,122.844 L104.184,122.844 L104.184,128.424 L100.944,128.424 L100.944,130.332 L104.184,130.332 L104.184,143.04 C104.16,144.624008 104.447997,145.709997 105.048,146.298 C105.648003,146.886003 106.703992,147.18 108.216,147.18 C108.552002,147.18 108.887998,147.168 109.224,147.144 C109.560002,147.12 109.895998,147.108 110.232,147.108 L110.232,145.2 C109.583997,145.272 108.936003,145.308 108.288,145.308 C107.471996,145.26 106.962001,145.026002 106.758,144.606 C106.553999,144.185998 106.452,143.604004 106.452,142.86 L106.452,130.332 L110.232,130.332 L110.232,128.424 L106.452,128.424 Z M123.696,121.296 L123.696,137.748 C123.696,139.068007 123.881998,140.321994 124.254,141.51 C124.626002,142.698006 125.213996,143.735996 126.018,144.624 C126.822004,145.512004 127.853994,146.213997 129.114,146.73 C130.374006,147.246003 131.891991,147.504 133.668,147.504 C135.468009,147.504 136.997994,147.246003 138.258,146.73 C139.518006,146.213997 140.549996,145.512004 141.354,144.624 C142.158004,143.735996 142.745998,142.698006 143.118,141.51 C143.490002,140.321994 143.676,139.068007 143.676,137.748 L143.676,121.296 L141.228,121.296 L141.228,137.208 C141.228,138.696007 141.060002,139.961995 140.724,141.006 C140.387998,142.050005 139.896003,142.901997 139.248,143.562 C138.599997,144.222003 137.808005,144.701999 136.872,145.002 C135.935995,145.302002 134.868006,145.452 133.668,145.452 C132.491994,145.452 131.436005,145.302002 130.5,145.002 C129.563995,144.701999 128.772003,144.222003 128.124,143.562 C127.475997,142.901997 126.984002,142.050005 126.648,141.006 C126.311998,139.961995 126.144,138.696007 126.144,137.208 L126.144,121.296 L123.696,121.296 Z M148.212,121.296 L148.212,147 L150.48,147 L150.48,121.296 L148.212,121.296 Z M158.436,128.424 L158.436,122.844 L156.168,122.844 L156.168,128.424 L152.928,128.424 L152.928,130.332 L156.168,130.332 L156.168,143.04 C156.144,144.624008 156.431997,145.709997 157.032,146.298 C157.632003,146.886003 158.687992,147.18 160.2,147.18 C160.536002,147.18 160.871998,147.168 161.208,147.144 C161.544002,147.12 161.879998,147.108 162.216,147.108 L162.216,145.2 C161.567997,145.272 160.920003,145.308 160.272,145.308 C159.455996,145.26 158.946001,145.026002 158.742,144.606 C158.537999,144.185998 158.436,143.604004 158.436,142.86 L158.436,130.332 L162.216,130.332 L162.216,128.424 L158.436,128.424 Z M165.492,128.424 L165.492,147 L167.76,147 L167.76,137.1 C167.76,136.115995 167.927998,135.210004 168.264,134.382 C168.600002,133.553996 169.073997,132.840003 169.686,132.24 C170.298003,131.639997 171.023996,131.178002 171.864,130.854 C172.704004,130.529998 173.639995,130.392 174.672,130.44 L174.672,128.172 C172.991992,128.1 171.546006,128.471996 170.334,129.288 C169.121994,130.104004 168.228003,131.267992 167.652,132.78 L167.58,132.78 L167.58,128.424 L165.492,128.424 Z M187.956,133.86 L190.224,133.86 C190.176,132.851995 189.972002,131.976004 189.612,131.232 C189.251998,130.487996 188.766003,129.864003 188.154,129.36 C187.541997,128.855997 186.834004,128.484001 186.03,128.244 C185.225996,128.003999 184.356005,127.884 183.42,127.884 C182.603996,127.884 181.782004,127.979999 180.954,128.172 C180.125996,128.364001 179.376003,128.663998 178.704,129.072 C178.031997,129.480002 177.486002,130.019997 177.066,130.692 C176.645998,131.364003 176.436,132.167995 176.436,133.104 C176.436,133.896004 176.567999,134.561997 176.832,135.102 C177.096001,135.642003 177.461998,136.097998 177.93,136.47 C178.398002,136.842002 178.943997,137.153999 179.568,137.406 C180.192003,137.658001 180.875996,137.879999 181.62,138.072 L184.536,138.72 C185.040003,138.840001 185.537998,138.983999 186.03,139.152 C186.522002,139.320001 186.959998,139.529999 187.344,139.782 C187.728002,140.034001 188.033999,140.345998 188.262,140.718 C188.490001,141.090002 188.604,141.551997 188.604,142.104 C188.604,142.752003 188.442002,143.297998 188.118,143.742 C187.793998,144.186002 187.380003,144.551999 186.876,144.84 C186.371997,145.128001 185.826003,145.331999 185.238,145.452 C184.649997,145.572001 184.080003,145.632 183.528,145.632 C182.015992,145.632 180.750005,145.242004 179.73,144.462 C178.709995,143.681996 178.152,142.524008 178.056,140.988 L175.788,140.988 C175.980001,143.268011 176.753993,144.923995 178.11,145.956 C179.466007,146.988005 181.235989,147.504 183.42,147.504 C184.284004,147.504 185.159996,147.408001 186.048,147.216 C186.936004,147.023999 187.733996,146.706002 188.442,146.262 C189.150004,145.817998 189.731998,145.242004 190.188,144.534 C190.644002,143.825996 190.872,142.968005 190.872,141.96 C190.872,141.143996 190.716002,140.436003 190.404,139.836 C190.091998,139.235997 189.690002,138.732002 189.198,138.324 C188.705998,137.915998 188.142003,137.586001 187.506,137.334 C186.869997,137.081999 186.228003,136.908 185.58,136.812 L182.556,136.128 C182.171998,136.032 181.752002,135.906001 181.296,135.75 C180.839998,135.593999 180.420002,135.396001 180.036,135.156 C179.651998,134.915999 179.334001,134.622002 179.082,134.274 C178.829999,133.925998 178.704,133.500003 178.704,132.996 C178.704,132.395997 178.835999,131.892002 179.1,131.484 C179.364001,131.075998 179.711998,130.746001 180.144,130.494 C180.576002,130.241999 181.049997,130.062001 181.566,129.954 C182.082003,129.845999 182.591997,129.792 183.096,129.792 C183.744003,129.792 184.355997,129.869999 184.932,130.026 C185.508003,130.182001 186.017998,130.427998 186.462,130.764 C186.906002,131.100002 187.259999,131.525997 187.524,132.042 C187.788001,132.558003 187.932,133.163997 187.956,133.86 C187.956,133.86 187.932,133.163997 187.956,133.86 Z M201.996,127.884 C200.579993,127.884 199.326005,128.147997 198.234,128.676 C197.141995,129.204003 196.224004,129.911996 195.48,130.8 C194.735996,131.688004 194.172002,132.725994 193.788,133.914 C193.403998,135.102006 193.212,136.367993 193.212,137.712 C193.212,139.056007 193.403998,140.321994 193.788,141.51 C194.172002,142.698006 194.735996,143.735996 195.48,144.624 C196.224004,145.512004 197.141995,146.213997 198.234,146.73 C199.326005,147.246003 200.579993,147.504 201.996,147.504 C203.412007,147.504 204.665995,147.246003 205.758,146.73 C206.850005,146.213997 207.767996,145.512004 208.512,144.624 C209.256004,143.735996 209.819998,142.698006 210.204,141.51 C210.588002,140.321994 210.78,139.056007 210.78,137.712 C210.78,136.367993 210.588002,135.102006 210.204,133.914 C209.819998,132.725994 209.256004,131.688004 208.512,130.8 C207.767996,129.911996 206.850005,129.204003 205.758,128.676 C204.665995,128.147997 203.412007,127.884 201.996,127.884 Z M201.996,129.792 C203.076005,129.792 204.023996,130.019998 204.84,130.476 C205.656004,130.932002 206.333997,131.531996 206.874,132.276 C207.414003,133.020004 207.821999,133.865995 208.098,134.814 C208.374001,135.762005 208.512,136.727995 208.512,137.712 C208.512,138.696005 208.374001,139.661995 208.098,140.61 C207.821999,141.558005 207.414003,142.403996 206.874,143.148 C206.333997,143.892004 205.656004,144.491998 204.84,144.948 C204.023996,145.404002 203.076005,145.632 201.996,145.632 C200.915995,145.632 199.968004,145.404002 199.152,144.948 C198.335996,144.491998 197.658003,143.892004 197.118,143.148 C196.577997,142.403996 196.170001,141.558005 195.894,140.61 C195.617999,139.661995 195.48,138.696005 195.48,137.712 C195.48,136.727995 195.617999,135.762005 195.894,134.814 C196.170001,133.865995 196.577997,133.020004 197.118,132.276 C197.658003,131.531996 198.335996,130.932002 199.152,130.476 C199.968004,130.019998 200.915995,129.792 201.996,129.792 C201.996,129.792 200.915995,129.792 201.996,129.792 Z M214.128,128.424 L214.128,147 L216.396,147 L216.396,136.164 C216.42,135.251995 216.569999,134.406004 216.846,133.626 C217.122001,132.845996 217.505998,132.174003 217.998,131.61 C218.490002,131.045997 219.089996,130.602002 219.798,130.278 C220.506004,129.953998 221.315995,129.792 222.228,129.792 C223.140005,129.792 223.901997,129.935999 224.514,130.224 C225.126003,130.512001 225.611998,130.907997 225.972,131.412 C226.332002,131.916003 226.583999,132.509997 226.728,133.194 C226.872001,133.878003 226.944,134.615996 226.944,135.408 L226.944,147 L229.212,147 L229.212,135.048 C229.212,133.943994 229.104001,132.948004 228.888,132.06 C228.671999,131.171996 228.300003,130.422003 227.772,129.81 C227.243997,129.197997 226.542004,128.724002 225.666,128.388 C224.789996,128.051998 223.704006,127.884 222.408,127.884 C221.087993,127.884 219.876006,128.225997 218.772,128.91 C217.667994,129.594003 216.900002,130.499994 216.468,131.628 L216.396,131.628 L216.396,128.424 L214.128,128.424 Z M233.532,121.296 L233.532,124.932 L235.8,124.932 L235.8,121.296 L233.532,121.296 Z M233.532,128.424 L233.532,147 L235.8,147 L235.8,128.424 L233.532,128.424 Z M253.26,134.256 L255.528,134.256 C255.263999,132.119989 254.442007,130.524005 253.062,129.468 C251.681993,128.411995 249.99601,127.884 248.004,127.884 C246.587993,127.884 245.334005,128.147997 244.242,128.676 C243.149995,129.204003 242.232004,129.911996 241.488,130.8 C240.743996,131.688004 240.180002,132.725994 239.796,133.914 C239.411998,135.102006 239.22,136.367993 239.22,137.712 C239.22,139.056007 239.411998,140.321994 239.796,141.51 C240.180002,142.698006 240.743996,143.735996 241.488,144.624 C242.232004,145.512004 243.149995,146.213997 244.242,146.73 C245.334005,147.246003 246.587993,147.504 248.004,147.504 C250.116011,147.504 251.843993,146.874006 253.188,145.614 C254.532007,144.353994 255.359998,142.596011 255.672,140.34 L253.404,140.34 C253.332,141.108004 253.140002,141.815997 252.828,142.464 C252.515998,143.112003 252.120002,143.669998 251.64,144.138 C251.159998,144.606002 250.608003,144.971999 249.984,145.236 C249.359997,145.500001 248.700003,145.632 248.004,145.632 C246.923995,145.632 245.976004,145.404002 245.16,144.948 C244.343996,144.491998 243.666003,143.892004 243.126,143.148 C242.585997,142.403996 242.178001,141.558005 241.902,140.61 C241.625999,139.661995 241.488,138.696005 241.488,137.712 C241.488,136.727995 241.625999,135.762005 241.902,134.814 C242.178001,133.865995 242.585997,133.020004 243.126,132.276 C243.666003,131.531996 244.343996,130.932002 245.16,130.476 C245.976004,130.019998 246.923995,129.792 248.004,129.792 C249.516008,129.792 250.691996,130.187996 251.532,130.98 C252.372004,131.772004 252.947998,132.863993 253.26,134.256 C253.26,134.256 252.947998,132.863993 253.26,134.256 Z M269.28,121.296 L269.28,147 L271.728,147 L271.728,134.544 L286.992,134.544 L286.992,147 L289.44,147 L289.44,121.296 L286.992,121.296 L286.992,132.456 L271.728,132.456 L271.728,121.296 L269.28,121.296 Z M309.24,147 L309.24,128.424 L306.972,128.424 L306.972,138.18 C306.972,139.116005 306.864001,140.033996 306.648,140.934 C306.431999,141.834004 306.096002,142.631997 305.64,143.328 C305.183998,144.024003 304.608003,144.581998 303.912,145.002 C303.215997,145.422002 302.376005,145.632 301.392,145.632 C299.591991,145.632 298.326004,145.200004 297.594,144.336 C296.861996,143.471996 296.472,142.200008 296.424,140.52 L296.424,128.424 L294.156,128.424 L294.156,140.484 C294.156,141.588006 294.275999,142.571996 294.516,143.436 C294.756001,144.300004 295.133997,145.031997 295.65,145.632 C296.166003,146.232003 296.837996,146.693998 297.666,147.018 C298.494004,147.342002 299.495994,147.504 300.672,147.504 C302.064007,147.504 303.329994,147.174003 304.47,146.514 C305.610006,145.853997 306.479997,144.900006 307.08,143.652 L307.152,143.652 L307.152,147 L309.24,147 Z M313.524,128.424 L313.524,147 L315.792,147 L315.792,136.632 C315.792,135.647995 315.899999,134.742004 316.116,133.914 C316.332001,133.085996 316.661998,132.366003 317.106,131.754 C317.550002,131.141997 318.125996,130.662002 318.834,130.314 C319.542004,129.965998 320.375995,129.792 321.336,129.792 C322.056004,129.792 322.667997,129.911999 323.172,130.152 C323.676003,130.392001 324.077999,130.721998 324.378,131.142 C324.678002,131.562002 324.893999,132.053997 325.026,132.618 C325.158001,133.182003 325.224,133.775997 325.224,134.4 L325.224,147 L327.492,147 L327.492,136.488 C327.492,135.623996 327.569999,134.790004 327.726,133.986 C327.882001,133.181996 328.151998,132.468003 328.536,131.844 C328.920002,131.219997 329.435997,130.722002 330.084,130.35 C330.732003,129.977998 331.547995,129.792 332.532,129.792 C334.164008,129.792 335.303997,130.193996 335.952,130.998 C336.600003,131.802004 336.924,132.971992 336.924,134.508 L336.924,147 L339.192,147 L339.192,134.4 C339.192,130.055978 337.140021,127.884 333.036,127.884 C331.811994,127.884 330.660005,128.183997 329.58,128.784 C328.499995,129.384003 327.684003,130.295994 327.132,131.52 C326.795998,130.295994 326.130005,129.384003 325.134,128.784 C324.137995,128.183997 323.028006,127.884 321.804,127.884 C320.291992,127.884 319.050005,128.207997 318.078,128.856 C317.105995,129.504003 316.320003,130.403994 315.72,131.556 L315.612,131.556 L315.612,128.424 L313.524,128.424 Z M343.548,121.296 L343.548,124.932 L345.816,124.932 L345.816,121.296 L343.548,121.296 Z M343.548,128.424 L343.548,147 L345.816,147 L345.816,128.424 L343.548,128.424 Z M366.516,121.296 L364.248,121.296 L364.248,131.952 L364.176,131.952 C363.935999,131.279997 363.594002,130.692003 363.15,130.188 C362.705998,129.683997 362.196003,129.258002 361.62,128.91 C361.043997,128.561998 360.426003,128.304001 359.766,128.136 C359.105997,127.967999 358.428003,127.884 357.732,127.884 C356.315993,127.884 355.086005,128.147997 354.042,128.676 C352.997995,129.204003 352.128003,129.917995 351.432,130.818 C350.735997,131.718005 350.220002,132.761994 349.884,133.95 C349.547998,135.138006 349.38,136.391993 349.38,137.712 C349.38,139.032007 349.547998,140.285994 349.884,141.474 C350.220002,142.662006 350.735997,143.705996 351.432,144.606 C352.128003,145.506005 352.997995,146.213997 354.042,146.73 C355.086005,147.246003 356.315993,147.504 357.732,147.504 C358.404003,147.504 359.081997,147.408001 359.766,147.216 C360.450003,147.023999 361.091997,146.754002 361.692,146.406 C362.292003,146.057998 362.825998,145.632003 363.294,145.128 C363.762002,144.623997 364.115999,144.072003 364.356,143.472 L364.428,143.472 L364.428,147 L366.516,147 L366.516,121.296 Z M351.648,137.712 C351.648,136.751995 351.761999,135.798005 351.99,134.85 C352.218001,133.901995 352.577998,133.056004 353.07,132.312 C353.562002,131.567996 354.191996,130.962002 354.96,130.494 C355.728004,130.025998 356.651995,129.792 357.732,129.792 C358.932006,129.792 359.945996,130.025998 360.774,130.494 C361.602004,130.962002 362.273997,131.567996 362.79,132.312 C363.306003,133.056004 363.677999,133.901995 363.906,134.85 C364.134001,135.798005 364.248,136.751995 364.248,137.712 C364.248,138.672005 364.134001,139.625995 363.906,140.574 C363.677999,141.522005 363.306003,142.367996 362.79,143.112 C362.273997,143.856004 361.602004,144.461998 360.774,144.93 C359.945996,145.398002 358.932006,145.632 357.732,145.632 C356.651995,145.632 355.728004,145.398002 354.96,144.93 C354.191996,144.461998 353.562002,143.856004 353.07,143.112 C352.577998,142.367996 352.218001,141.522005 351.99,140.574 C351.761999,139.625995 351.648,138.672005 351.648,137.712 C351.648,137.712 351.648,138.672005 351.648,137.712 Z M370.872,121.296 L370.872,124.932 L373.14,124.932 L373.14,121.296 L370.872,121.296 Z M370.872,128.424 L370.872,147 L373.14,147 L373.14,128.424 L370.872,128.424 Z M386.856,121.296 L386.856,124.932 L389.124,124.932 L389.124,121.296 L386.856,121.296 Z M378.72,130.332 L378.72,147 L380.988,147 L380.988,130.332 L384.66,130.332 L384.66,128.424 L380.988,128.424 L380.988,126.804 C380.988,126.299997 381,125.832002 381.024,125.4 C381.048,124.967998 381.137999,124.590002 381.294,124.266 C381.450001,123.941998 381.695998,123.684001 382.032,123.492 C382.368002,123.299999 382.847997,123.204 383.472,123.204 C383.736001,123.204 383.999999,123.222 384.264,123.258 C384.528001,123.294 384.815998,123.336 385.128,123.384 L385.128,121.44 C384.767998,121.392 384.444001,121.356 384.156,121.332 C383.867999,121.308 383.556002,121.296 383.22,121.296 C382.307995,121.296 381.558003,121.427999 380.97,121.692 C380.381997,121.956001 379.920002,122.327998 379.584,122.808 C379.247998,123.288002 379.020001,123.863997 378.9,124.536 C378.779999,125.208003 378.72,125.939996 378.72,126.732 L378.72,128.424 L375.552,128.424 L375.552,130.332 L378.72,130.332 Z M386.856,128.424 L386.856,147 L389.124,147 L389.124,128.424 L386.856,128.424 Z M394.812,138.324 L409.104,138.324 C409.152,137.027994 409.032001,135.750006 408.744,134.49 C408.455999,133.229994 407.982003,132.114005 407.322,131.142 C406.661997,130.169995 405.804005,129.384003 404.748,128.784 C403.691995,128.183997 402.420007,127.884 400.932,127.884 C399.467993,127.884 398.202005,128.165997 397.134,128.73 C396.065995,129.294003 395.196003,130.037995 394.524,130.962 C393.851997,131.886005 393.354002,132.935994 393.03,134.112 C392.705998,135.288006 392.544,136.487994 392.544,137.712 C392.544,139.032007 392.705998,140.285994 393.03,141.474 C393.354002,142.662006 393.851997,143.705996 394.524,144.606 C395.196003,145.506005 396.065995,146.213997 397.134,146.73 C398.202005,147.246003 399.467993,147.504 400.932,147.504 C403.284012,147.504 405.101994,146.928006 406.386,145.776 C407.670006,144.623994 408.551998,142.992011 409.032,140.88 L406.764,140.88 C406.403998,142.320007 405.756005,143.471996 404.82,144.336 C403.883995,145.200004 402.588008,145.632 400.932,145.632 C399.851995,145.632 398.928004,145.404002 398.16,144.948 C397.391996,144.491998 396.756003,143.916003 396.252,143.22 C395.747997,142.523997 395.382001,141.738004 395.154,140.862 C394.925999,139.985996 394.812,139.140004 394.812,138.324 C394.812,138.324 394.812,139.140004 394.812,138.324 Z M406.836,136.416 L394.812,136.416 C394.908,135.575996 395.105999,134.754004 395.406,133.95 C395.706002,133.145996 396.107997,132.438003 396.612,131.826 C397.116003,131.213997 397.727996,130.722002 398.448,130.35 C399.168004,129.977998 399.995995,129.792 400.932,129.792 C401.844005,129.792 402.659996,129.977998 403.38,130.35 C404.100004,130.722002 404.711997,131.213997 405.216,131.826 C405.720003,132.438003 406.109999,133.139996 406.386,133.932 C406.662001,134.724004 406.812,135.551996 406.836,136.416 C406.836,136.416 406.812,135.551996 406.836,136.416 Z M412.164,128.424 L412.164,147 L414.432,147 L414.432,137.1 C414.432,136.115995 414.599998,135.210004 414.936,134.382 C415.272002,133.553996 415.745997,132.840003 416.358,132.24 C416.970003,131.639997 417.695996,131.178002 418.536,130.854 C419.376004,130.529998 420.311995,130.392 421.344,130.44 L421.344,128.172 C419.663992,128.1 418.218006,128.471996 417.006,129.288 C415.793994,130.104004 414.900003,131.267992 414.324,132.78 L414.252,132.78 L414.252,128.424 L412.164,128.424 Z M412.164,128.424" id="Smart-Ultrsonic-Humi" fill-opacity="0.348747702" sketch:type="MSShapeGroup"></path>
        </g>
    </g>
</svg>