<?xml version="1.0" encoding="utf-8"?>
<!-- Generator: Adobe Illustrator 16.0.0, SVG Export Plug-In . SVG Version: 6.00 Build 0)  -->
<!DOCTYPE svg PUBLIC "-//W3C//DTD SVG 1.0//EN" "http://www.w3.org/TR/2001/REC-SVG-20010904/DTD/svg10.dtd">
<svg version="1.0" id="Layer_1" xmlns="http://www.w3.org/2000/svg" xmlns:xlink="http://www.w3.org/1999/xlink" x="0px" y="0px"
	 width="110px" height="32px" viewBox="0 0 110 32" enable-background="new 0 0 110 32" xml:space="preserve">
<g>
	<g>
		<path fill="#68A6BF" d="M10.829,20.299c0-1.572,0.296-3.041,0.892-4.412c0.596-1.37,1.408-2.571,2.435-3.6
			c1.024-1.027,2.223-1.839,3.591-2.437c1.368-0.596,2.836-0.894,4.403-0.894c1.567,0,3.035,0.302,4.404,0.911
			c1.369,0.608,2.567,1.431,3.594,2.472c1.023,1.04,1.834,2.242,2.432,3.613c0.598,1.373,0.892,2.818,0.892,4.346
			c0,1.57-0.294,3.041-0.892,4.412c-0.598,1.369-1.409,2.57-2.432,3.6c-1.027,1.023-2.226,1.838-3.594,2.438
			c-1.369,0.594-2.836,0.893-4.404,0.893c-1.567,0-3.035-0.299-4.403-0.893c-1.368-0.6-2.567-1.414-3.591-2.438
			c-1.027-1.029-1.839-2.23-2.435-3.6C11.125,23.34,10.829,21.869,10.829,20.299z M14.801,20.299c0,1.016,0.192,1.973,0.581,2.869
			c0.384,0.896,0.908,1.676,1.57,2.34c0.664,0.66,1.443,1.188,2.336,1.574c0.894,0.383,1.849,0.578,2.863,0.578
			c1.015,0,1.969-0.195,2.864-0.578c0.892-0.387,1.669-0.914,2.335-1.574c0.663-0.664,1.184-1.443,1.573-2.34
			c0.386-0.896,0.581-1.854,0.581-2.869s-0.194-1.975-0.581-2.869c-0.389-0.896-0.91-1.674-1.573-2.338
			c-0.666-0.664-1.443-1.188-2.335-1.576c-0.895-0.388-1.849-0.578-2.864-0.578c-1.014,0-1.969,0.19-2.863,0.578
			c-0.893,0.388-1.672,0.912-2.336,1.576c-0.662,0.664-1.186,1.442-1.57,2.338C14.993,18.324,14.801,19.283,14.801,20.299z"/>
	</g>
	<g>
		<path fill="#68A6BF" d="M34.576,20.299c0-1.572,0.296-3.041,0.896-4.412c0.594-1.37,1.405-2.571,2.431-3.6
			c1.027-1.027,2.226-1.839,3.592-2.437c1.371-0.596,2.838-0.894,4.404-0.894c1.566,0,3.034,0.302,4.406,0.911
			c1.366,0.608,2.562,1.431,3.588,2.472c1.03,1.04,1.84,2.242,2.435,3.613c0.596,1.373,0.897,2.818,0.897,4.346
			c0,1.57-0.302,3.041-0.897,4.412c-0.595,1.369-1.405,2.57-2.435,3.6c-1.027,1.023-2.223,1.838-3.588,2.438
			c-1.372,0.594-2.839,0.893-4.406,0.893c-1.565,0-3.033-0.299-4.404-0.893c-1.366-0.6-2.565-1.414-3.592-2.438
			c-1.026-1.029-1.837-2.23-2.431-3.6C34.873,23.34,34.576,21.869,34.576,20.299z M38.551,20.299c0,1.016,0.192,1.973,0.579,2.869
			c0.386,0.896,0.913,1.676,1.569,2.34c0.666,0.66,1.441,1.188,2.336,1.574c0.892,0.383,1.849,0.578,2.864,0.578
			c1.017,0,1.972-0.195,2.863-0.578c0.896-0.387,1.674-0.914,2.335-1.574c0.663-0.664,1.188-1.443,1.572-2.34
			c0.387-0.896,0.579-1.854,0.579-2.869s-0.192-1.975-0.579-2.869c-0.384-0.896-0.91-1.674-1.572-2.338
			c-0.661-0.664-1.439-1.188-2.335-1.576c-0.892-0.388-1.847-0.578-2.863-0.578c-1.015,0-1.972,0.19-2.864,0.578
			c-0.895,0.388-1.67,0.912-2.336,1.576c-0.657,0.664-1.183,1.442-1.569,2.338C38.743,18.324,38.551,19.283,38.551,20.299z"/>
	</g>
	<g>
		<path fill="#68A6BF" d="M58.254,0h3.973v31.043h-3.973V0z"/>
	</g>
	<g>
		<path fill="#68A6BF" d="M85.366,24.367c-0.002,1.02-0.285,1.975-0.836,2.867c-0.558,0.895-1.317,1.67-2.279,2.328
			c-0.964,0.658-2.091,1.182-3.385,1.562c-1.293,0.381-2.667,0.57-4.124,0.564c-1.564-0.006-3.033-0.312-4.399-0.914
			c-1.363-0.604-2.56-1.422-3.581-2.451c-1.024-1.033-1.829-2.236-2.416-3.609c-0.592-1.373-0.887-2.846-0.88-4.412
			c0.007-1.572,0.311-3.041,0.914-4.407c0.601-1.371,1.417-2.567,2.444-3.592c1.028-1.022,2.233-1.83,3.603-2.422
			s2.84-0.882,4.407-0.877c1.546,0.006,3.053,0.306,4.517,0.897c1.465,0.591,2.736,1.459,3.814,2.601
			c1.075,1.144,1.88,2.546,2.416,4.207c0.532,1.66,0.652,3.553,0.358,5.672l-18.245-0.074c0,0.531,0.185,1.107,0.559,1.729
			c0.37,0.621,0.878,1.201,1.516,1.746c0.636,0.547,1.38,1.002,2.229,1.371c0.849,0.365,1.771,0.553,2.762,0.555
			c0.86,0.006,1.665-0.08,2.42-0.254c0.749-0.172,1.408-0.414,1.972-0.721c0.561-0.311,1.007-0.664,1.328-1.072
			s0.482-0.846,0.482-1.309L85.366,24.367z M81.885,18.385c-0.113-0.465-0.352-1.008-0.726-1.629
			c-0.372-0.617-0.868-1.207-1.479-1.763c-0.618-0.555-1.333-1.028-2.147-1.417c-0.817-0.393-1.722-0.587-2.715-0.594
			c-0.991-0.003-1.896,0.187-2.716,0.572c-0.815,0.383-1.538,0.85-2.16,1.401c-0.617,0.55-1.123,1.133-1.509,1.752
			c-0.391,0.615-0.632,1.154-0.72,1.619L81.885,18.385z"/>
	</g>
	<path fill="#68A6BF" d="M1.699,14.67c0.741-1.471,1.64-2.627,2.7-3.466c1.059-0.84,2.218-1.428,3.476-1.758
		c1.256-0.333,2.504-0.499,3.743-0.499v3.979c-0.932,0-1.739,0.105-2.434,0.314c-0.696,0.212-1.296,0.495-1.805,0.844
		c-0.511,0.356-0.939,0.749-1.292,1.181c-0.354,0.431-0.652,0.878-0.894,1.343c-0.556,1.082-0.86,2.311-0.927,3.682v10.744H0.291
		V20.291C0.491,18.014,0.962,16.14,1.699,14.67z"/>
	<path fill="#68A6BF" d="M108.379,14.67c-0.74-1.471-1.638-2.627-2.696-3.466c-1.062-0.84-2.22-1.428-3.476-1.758
		c-1.263-0.333-2.51-0.499-3.744-0.499c-1.236,0-2.483,0.166-3.74,0.499c-1.261,0.331-2.418,0.918-3.475,1.758
		c-1.062,0.839-1.961,1.995-2.699,3.466c-0.739,1.47-1.209,3.344-1.411,5.621v10.744h3.975V20.291
		c0.066-1.371,0.379-2.6,0.928-3.682c0.245-0.465,0.541-0.912,0.894-1.343c0.354-0.432,0.784-0.824,1.29-1.181
		c0.509-0.35,1.112-0.632,1.807-0.844c0.695-0.209,1.505-0.314,2.433-0.314c0.93,0,1.736,0.105,2.434,0.314
		c0.694,0.212,1.298,0.495,1.804,0.844c0.508,0.356,0.938,0.749,1.292,1.181c0.354,0.431,0.647,0.878,0.893,1.343
		c0.557,1.082,0.862,2.311,0.93,3.682v10.744h3.973V20.291C109.589,18.014,109.12,16.14,108.379,14.67z"/>
</g>
</svg>
