<?xml version="1.0" encoding="utf-8"?>
<!-- Generator: Adobe Illustrator 16.0.0, SVG Export Plug-In . SVG Version: 6.00 Build 0)  -->
<!DOCTYPE svg PUBLIC "-//W3C//DTD SVG 1.0//EN" "http://www.w3.org/TR/2001/REC-SVG-20010904/DTD/svg10.dtd">
<svg version="1.0" id="Layer_1" xmlns="http://www.w3.org/2000/svg" xmlns:xlink="http://www.w3.org/1999/xlink" x="0px" y="0px"
	 width="187px" height="53px" viewBox="0 0 187 53" enable-background="new 0 0 187 53" xml:space="preserve">
<g>
	<g>
		<path fill="#68A6BF" d="M19.586,33.936c0-2.624,0.494-5.075,1.489-7.363c0.994-2.287,2.349-4.291,4.063-6.007
			c1.709-1.714,3.709-3.07,5.993-4.068c2.283-0.994,4.733-1.493,7.348-1.493c2.615,0,5.065,0.505,7.35,1.522
			c2.284,1.014,4.284,2.386,5.998,4.124c1.708,1.737,3.061,3.742,4.059,6.03c0.998,2.292,1.489,4.703,1.489,7.253
			c0,2.62-0.491,5.074-1.489,7.363c-0.999,2.284-2.352,4.289-4.059,6.01c-1.713,1.705-3.715,3.067-5.998,4.068
			c-2.285,0.99-4.733,1.489-7.35,1.489c-2.615,0-5.064-0.499-7.348-1.489c-2.283-1.001-4.284-2.36-5.993-4.068
			c-1.714-1.718-3.069-3.722-4.063-6.01C20.081,39.011,19.586,36.556,19.586,33.936z M26.215,33.936c0,1.695,0.321,3.292,0.97,4.788
			c0.641,1.496,1.516,2.797,2.621,3.905c1.108,1.102,2.408,1.981,3.898,2.627c1.492,0.639,3.086,0.965,4.778,0.965
			c1.694,0,3.286-0.326,4.78-0.965c1.489-0.646,2.785-1.525,3.897-2.627c1.106-1.108,1.976-2.409,2.625-3.905
			c0.645-1.496,0.97-3.093,0.97-4.788s-0.324-3.296-0.97-4.788c-0.648-1.496-1.518-2.793-2.625-3.902
			c-1.112-1.108-2.408-1.983-3.897-2.63c-1.494-0.648-3.086-0.965-4.78-0.965c-1.692,0-3.286,0.316-4.778,0.965
			c-1.49,0.647-2.79,1.522-3.898,2.63c-1.105,1.108-1.979,2.406-2.621,3.902C26.536,30.64,26.215,32.24,26.215,33.936z"/>
	</g>
	<g>
		<path fill="#68A6BF" d="M59.217,33.936c0-2.624,0.494-5.075,1.496-7.363c0.991-2.287,2.344-4.291,4.056-6.007
			c1.714-1.714,3.715-3.07,5.995-4.068c2.288-0.994,4.736-1.493,7.35-1.493c2.613,0,5.063,0.505,7.353,1.522
			c2.279,1.014,4.276,2.386,5.988,4.124c1.719,1.737,3.07,3.742,4.064,6.03c0.994,2.292,1.496,4.703,1.496,7.253
			c0,2.62-0.504,5.074-1.496,7.363c-0.994,2.284-2.345,4.289-4.064,6.01c-1.713,1.705-3.71,3.067-5.988,4.068
			c-2.29,0.99-4.738,1.489-7.353,1.489c-2.612,0-5.062-0.499-7.35-1.489c-2.28-1.001-4.281-2.36-5.995-4.068
			c-1.712-1.718-3.065-3.722-4.056-6.01C59.713,39.011,59.217,36.556,59.217,33.936z M65.851,33.936
			c0,1.695,0.321,3.292,0.966,4.788c0.645,1.496,1.524,2.797,2.619,3.905c1.111,1.102,2.405,1.981,3.898,2.627
			c1.488,0.639,3.085,0.965,4.779,0.965c1.697,0,3.291-0.326,4.778-0.965c1.495-0.646,2.793-1.525,3.896-2.627
			c1.106-1.108,1.983-2.409,2.623-3.905c0.646-1.496,0.967-3.093,0.967-4.788s-0.32-3.296-0.967-4.788
			c-0.64-1.496-1.519-2.793-2.623-3.902c-1.103-1.108-2.401-1.983-3.896-2.63c-1.489-0.648-3.083-0.965-4.778-0.965
			c-1.694,0-3.292,0.316-4.779,0.965c-1.494,0.647-2.787,1.522-3.898,2.63c-1.097,1.108-1.975,2.406-2.619,3.902
			C66.171,30.64,65.851,32.24,65.851,33.936z"/>
	</g>
	<g>
		<path fill="#68A6BF" d="M98.732,0.059h6.63v51.808h-6.63V0.059z"/>
	</g>
	<g>
		<path fill="#68A6BF" d="M143.979,40.725c-0.005,1.702-0.477,3.296-1.397,4.785c-0.929,1.493-2.196,2.787-3.802,3.886
			c-1.608,1.099-3.489,1.972-5.648,2.604c-2.158,0.635-4.451,0.951-6.883,0.941c-2.61-0.01-5.062-0.521-7.342-1.525
			c-2.273-1.007-4.271-2.373-5.977-4.091c-1.708-1.724-3.051-3.731-4.032-6.023c-0.987-2.291-1.479-4.749-1.468-7.363
			c0.011-2.62,0.52-5.075,1.525-7.353c1.002-2.289,2.364-4.283,4.079-5.995c1.715-1.705,3.726-3.054,6.012-4.042
			c2.287-0.988,4.741-1.473,7.355-1.463c2.58,0.01,5.095,0.51,7.539,1.496c2.444,0.987,4.565,2.435,6.364,4.341
			c1.795,1.909,3.138,4.247,4.032,7.021c0.888,2.771,1.087,5.929,0.598,9.466l-30.45-0.124c0,0.887,0.31,1.849,0.934,2.885
			c0.618,1.036,1.466,2.005,2.531,2.914c1.06,0.912,2.302,1.672,3.72,2.288c1.418,0.609,2.956,0.923,4.608,0.926
			c1.436,0.01,2.779-0.134,4.039-0.424c1.251-0.287,2.35-0.691,3.292-1.203c0.936-0.518,1.68-1.107,2.216-1.789
			c0.535-0.682,0.804-1.411,0.804-2.184L143.979,40.725z M138.169,30.741c-0.188-0.775-0.587-1.682-1.211-2.719
			c-0.621-1.029-1.448-2.014-2.469-2.943c-1.03-0.926-2.223-1.715-3.582-2.363c-1.364-0.657-2.875-0.981-4.531-0.993
			c-1.654-0.005-3.165,0.312-4.534,0.955c-1.358,0.639-2.564,1.418-3.604,2.339c-1.028,0.916-1.874,1.891-2.517,2.924
			c-0.653,1.026-1.056,1.926-1.202,2.702L138.169,30.741z"/>
	</g>
	<path fill="#68A6BF" d="M4.35,24.542c1.236-2.455,2.736-4.384,4.505-5.786c1.768-1.401,3.702-2.383,5.801-2.934
		c2.096-0.556,4.179-0.833,6.247-0.833v6.641c-1.555,0-2.902,0.176-4.062,0.525c-1.162,0.352-2.163,0.825-3.013,1.408
		c-0.852,0.593-1.567,1.249-2.156,1.971c-0.59,0.719-1.087,1.465-1.492,2.241c-0.927,1.806-1.435,3.855-1.547,6.144V51.85H2V33.923
		C2.334,30.122,3.12,26.996,4.35,24.542z"/>
	<path fill="#68A6BF" d="M182.385,24.542c-1.235-2.455-2.731-4.384-4.498-5.786c-1.773-1.401-3.707-2.383-5.803-2.934
		c-2.108-0.556-4.188-0.833-6.248-0.833c-2.063,0-4.143,0.277-6.242,0.833c-2.104,0.553-4.035,1.532-5.799,2.934
		c-1.772,1.402-3.272,3.331-4.504,5.786c-1.232,2.455-2.018,5.581-2.354,9.381v17.93h6.633v-17.93
		c0.11-2.289,0.633-4.339,1.548-6.145c0.409-0.775,0.903-1.524,1.493-2.243c0.59-0.72,1.307-1.375,2.15-1.972
		c0.852-0.583,1.859-1.053,3.02-1.408c1.157-0.349,2.51-0.525,4.058-0.525c1.552,0,2.897,0.176,4.062,0.525
		c1.16,0.355,2.168,0.826,3.012,1.408c0.848,0.595,1.564,1.252,2.158,1.972c0.59,0.719,1.078,1.467,1.489,2.243
		c0.929,1.806,1.438,3.855,1.552,6.145v17.93h6.63v-17.93C184.405,30.122,183.623,26.996,182.385,24.542z"/>
</g>
</svg>
